<svg xmlns="http://www.w3.org/2000/svg" viewBox="0 0 512 512"><defs><linearGradient id="g" x1="0.5" y1="0" x2="0.5" y2="1"><stop offset="0%" stop-color="#FAD02C"/><stop offset="100%" stop-color="#BE880C"/></linearGradient></defs><rect width="512" height="512" fill="white"/><path fill="url(#g)" d="M 82,458 L 82,74 Q 82,36 120,36 L 295,36 Q 418,36 418,148 L 418,244 Q 418,344 295,344 L 180,344 L 180,458 Q 180,480 155,480 L 107,480 Q 82,480 82,458 Z"/><polygon points="215,218 299,110 383,218" fill="white"/><rect x="235" y="214" width="128" height="112" fill="white" rx="3"/><rect x="271" y="150" width="56" height="46" fill="url(#g)" rx="3"/><line x1="299" y1="150" x2="299" y2="196" stroke="white" stroke-width="5"/><line x1="271" y1="173" x2="327" y2="173" stroke="white" stroke-width="5"/><rect x="271" y="255" width="56" height="71" fill="url(#g)" rx="3"/></svg>